<svg width="42" height="42" viewBox="0 0 42 42" fill="none" xmlns="http://www.w3.org/2000/svg">
<path fill-rule="evenodd" clip-rule="evenodd" d="M21 1C9.96162 1 1 9.96162 1 20.9993C1 32.0376 9.96162 40.9993 21 40.9993C32.0384 40.9993 41 32.0376 41 20.9993C41 9.96162 32.0384 1 21 1ZM21 2.73363C31.0814 2.73363 39.2665 10.9188 39.2665 20.9994C39.2665 31.0808 31.0814 39.2659 21 39.2659C10.9186 39.2659 2.73348 31.0808 2.73348 20.9994C2.73348 10.9188 10.9186 2.73363 21 2.73363Z" fill="#BC8AFC" stroke="#BC8AFC" stroke-width="1.2"/>
<path fill-rule="evenodd" clip-rule="evenodd" d="M11.1928 21.612L17.3224 27.7417C17.6606 28.0801 18.21 28.0801 18.5481 27.7417L30.8073 15.4825C31.1457 15.1441 31.1457 14.595 30.8073 14.2565C30.4692 13.9184 29.9198 13.9184 29.5816 14.2565L17.9354 25.9027L12.4188 20.386C12.0803 20.0479 11.5312 20.0479 11.1928 20.386C10.8544 20.7245 10.8544 21.2736 11.1928 21.612Z" fill="#BC8AFC" stroke="#BC8AFC" stroke-width="1.2"/>
</svg>
