<svg width="42" height="42" viewBox="0 0 42 42" fill="none" xmlns="http://www.w3.org/2000/svg">
<path fill-rule="evenodd" clip-rule="evenodd" d="M21 1C9.96162 1 1 9.96162 1 20.9993C1 32.0376 9.96162 40.9993 21 40.9993C32.0384 40.9993 41 32.0376 41 20.9993C41 9.96162 32.0384 1 21 1ZM21 2.73363C31.0814 2.73363 39.2665 10.9188 39.2665 20.9994C39.2665 31.0808 31.0814 39.2659 21 39.2659C10.9186 39.2659 2.73348 31.0808 2.73348 20.9994C2.73348 10.9188 10.9186 2.73363 21 2.73363Z" fill="#BC8AFC" stroke="#BC8AFC" stroke-width="1.2"/>
<path fill-rule="evenodd" clip-rule="evenodd" d="M18.4704 10.2337C18.1259 9.91663 17.5891 9.92609 17.2561 10.2549C16.9232 10.5836 16.9136 11.1136 17.2347 11.4539L26.5611 20.663L17.2347 29.55C16.9136 29.8902 16.9232 30.4203 17.2561 30.7491C17.5891 31.0779 18.1259 31.0872 18.4704 30.7702L28.8696 20.6631L18.4704 10.2337Z" fill="#BC8AFC" stroke="#BC8AFC" stroke-width="1.2"/>
</svg>
