<svg width="42" height="42" viewBox="0 0 42 42" fill="none" xmlns="http://www.w3.org/2000/svg">
<path fill-rule="evenodd" clip-rule="evenodd" d="M21 41C32.0384 41 41 32.0384 41 21.0007C41 9.96236 32.0384 1.00074 21 1.00074C9.96162 1.00074 1 9.96236 1 21.0007C1 32.0384 9.96162 41 21 41ZM21 39.2664C10.9186 39.2664 2.73347 31.0812 2.73347 21.0006C2.73347 10.9192 10.9186 2.73407 21 2.73407C31.0814 2.73407 39.2665 10.9192 39.2665 21.0006C39.2665 31.0812 31.0814 39.2664 21 39.2664Z" fill="#BC8AFC" stroke="#BC8AFC" stroke-width="1.2"/>
<path fill-rule="evenodd" clip-rule="evenodd" d="M23.5296 31.7663C23.8741 32.0834 24.4109 32.0739 24.7439 31.7451C25.0768 31.4164 25.0864 30.8864 24.7653 30.5461L15.4389 21.337L24.7653 12.45C25.0864 12.1098 25.0768 11.5797 24.7439 11.2509C24.4109 10.9221 23.8741 10.9128 23.5296 11.2298L13.1304 21.3369L23.5296 31.7663Z" fill="#BC8AFC" stroke="#BC8AFC" stroke-width="1.2"/>
</svg>
